<?xml version="1.0"?><svg fill="#000000" xmlns="http://www.w3.org/2000/svg"  viewBox="0 0 30 30" width="30px" height="30px">    <path d="M 6 4 C 4.895 4 4 4.895 4 6 L 4 24 C 4 25.105 4.895 26 6 26 L 24 26 C 25.105 26 26 25.105 26 24 L 26 6 C 26 4.895 25.105 4 24 4 L 6 4 z M 14.873047 8 C 17.192047 8 18.337891 9.4667969 18.337891 9.4667969 L 18.337891 8.2167969 L 20.189453 8.2167969 L 20.189453 16.714844 C 20.189453 18.097844 20.403453 22 15.064453 22 C 9.8924531 22 10.236328 19.180906 10.236328 18.878906 L 12.148438 19.095703 C 12.408437 20.322703 13.452453 20.65625 15.064453 20.65625 C 18.365453 20.65625 18.169922 18.150328 18.169922 16.736328 C 18.169922 16.736328 17.096078 18.015625 14.955078 18.015625 C 12.814078 18.015625 9.8105469 16.922672 9.8105469 13.013672 C 9.8105469 9.3576719 12.554047 8 14.873047 8 z M 15.089844 9.3652344 C 12.925844 9.3652344 11.847656 10.997719 11.847656 13.011719 C 11.847656 15.025719 12.824844 16.658203 15.089844 16.658203 C 17.354844 16.658203 18.330078 15.025719 18.330078 13.011719 C 18.330078 10.997719 17.253844 9.3652344 15.089844 9.3652344 z"/></svg>